<svg xmlns="http://www.w3.org/2000/svg" viewBox="0 0 64 64" role="img" aria-label="scalynx icon">
  <defs>
    <linearGradient id="g" x1="0" x2="1" y1="0" y2="1">
      <stop offset="0%" stop-color="#ffb547"/>
      <stop offset="100%" stop-color="#ff9800"/>
    </linearGradient>
  </defs>
  <rect x="4" y="4" width="56" height="56" rx="14" fill="#0d1927"/>
  <path d="M20 24c0-4 3-7 8-7h8v6h-8c-1 0-2 1-2 2s1 2 2 2h8c5 0 8 3 8 7s-3 7-8 7h-8v-6h8c1 0 2-1 2-2s-1-2-2-2h-8c-5 0-8-3-8-7z" fill="url(#g)"/>
  <circle cx="48" cy="48" r="4" fill="#2b8cc7"/>
</svg>
